[Header]
FileType HTR
DataType HTRS
FileVersion 1
NumSegments 22
NumFrames 4
DataFrameRate 24
EulerRotationOrder ZYX
CalibrationUnits mm
RotationUnits Degrees
GlobalAxisofGravity Y
BoneLengthAxis Y
ScaleFactor 1.0
[SegmentNames&Hierarchy]
reference	GLOBAL
Hips	reference
Spine	Hips
Spine1	Spine
Neck	Spine1
Head	Neck
LeftShoulder	Spine1
LeftArm	LeftShoulder
LeftForeArm	LeftArm
LeftHand	LeftForeArm
RightShoulder	Spine1
RightArm	RightShoulder
RightForeArm	RightArm
RightHand	RightForeArm
LeftUpLeg	Hips
LeftLeg	LeftUpLeg
LeftFoot	LeftLeg
LeftToeBase	LeftFoot
RightUpLeg	Hips
RightLeg	RightUpLeg
RightFoot	RightLeg
RightToeBase	RightFoot
[BasePosition]
reference	0	0	0	0	0	0	1
Hips	0	0	0	0	0	0	1
Spine	0	0	0	0	-0	90	1
Spine1	0	0	0	0	0	0	1
Neck	0	0	0	-7.352327771	-7.352327771	90	1
Head	0	0	0	0	-0	90	1
LeftShoulder	0	0	0	0	0	0	1
LeftArm	0	0	0	0	0	0	1
LeftForeArm	0	0	0	0	0	0	1
LeftHand	0	0	0	0	0	0	1
RightShoulder	0	0	0	0	-0	180	1
RightArm	0	0	0	0	-0	180	1
RightForeArm	0	0	0	0	-0	180	1
RightHand	0	0	0	0	-0	180	1
LeftUpLeg	0	0	0	0	-0	-90	1
LeftLeg	0	0	0	0	-0	-90	1
LeftFoot	0	0	0	66.57146043	-66.57146043	-90	1
LeftToeBase	0	0	0	0	-90	0	1
RightUpLeg	0	0	0	0	-0	-90	1
RightLeg	0	0	0	0	-0	-90	1
RightFoot	0	0	0	66.57146043	-66.57146043	-90	1
RightToeBase	0	0	0	0	-90	0	1
[reference]
1	0	0	0	0	-0	0	1.0
2	0	0	0	0	-0	0	1.0
3	0	0	0	0	-0	0	1.0
4	0	0	0	0	-0	0	1.0
[Hips]
1	1.478189945	8.415380478	0.1519799978	-7.062088013	-104.2045746	7.205749512	1.0
2	1.478189945	8.415380478	0.1519799978	-7.137209892	-104.1988907	7.253286362	1.0
3	1.478189945	8.415380478	0.1519799978	-7.241302013	-104.2150574	7.368644238	1.0
4	1.478189945	8.415380478	0.1519799978	-7.247448921	-104.2393417	7.390839577	1.0
[Spine]
1	0	0.7457100153	0	-6.752500534	2.204173088	-89.85210419	1.0
2	0	0.7457100153	0	-6.684943199	2.222559929	-89.8359375	1.0
3	0	0.7457100153	0	-6.664350986	2.283811569	-89.81381226	1.0
4	0	0.7457100153	0	-6.692825794	2.341180801	-89.84780884	1.0
[Spine1]
1	0	2.140589952	0	9.362468719	0.5899382234	1.820544243	1.0
2	0	2.140589952	0	9.324023247	0.5905466676	1.797148347	1.0
3	0	2.140589952	0	9.285944939	0.6135513783	1.780393958	1.0
4	0	2.140589952	0	9.283511162	0.6258904934	1.805987954	1.0
[Neck]
1	0	2.32246995	0	-14.92685795	5.218351841	-90.29619598	1.0
2	0	2.32246995	0	-15.09166145	5.216869831	-90.2721405	1.0
3	0	2.32246995	0	-15.08255577	5.139247894	-90.22132874	1.0
4	0	2.32246995	0	-15.03090477	5.101940632	-90.17165375	1.0
[Head]
1	0	1.409579992	0.1818799973	-3.768222094	-2.145365238	-90.60678101	1.0
2	0	1.409579992	0.1818799973	-3.679995298	-2.149443626	-90.59056854	1.0
3	0	1.409579992	0.1818799973	-3.696207285	-2.229135036	-90.6473999	1.0
4	0	1.409579992	0.1818799973	-3.664331436	-2.256021738	-90.80664063	1.0
[LeftShoulder]
1	0.3668199778	1.946700096	-0.02662999928	-12.81276512	-12.80887032	-5.316646576	1.0
2	0.3668199778	1.946700096	-0.02662999928	-12.8254385	-12.86112499	-5.264727116	1.0
3	0.3668199778	1.946700096	-0.02662999928	-12.82293701	-12.91109657	-5.228738785	1.0
4	0.3668199778	1.946700096	-0.02662999928	-12.78812695	-12.97577667	-5.188168526	1.0
[LeftArm]
1	1.140689969	0	0	37.22066879	14.80961514	-73.87452698	1.0
2	1.140689969	0	0	37.16356277	14.92844486	-73.86989594	1.0
3	1.140689969	0	0	37.09199142	15.00203037	-73.94094086	1.0
4	1.140689969	0	0	37.11575317	15.04711056	-74.13142395	1.0
[LeftForeArm]
1	2.749800205	0	0	-14.92140579	-12.68898678	1.441967726	1.0
2	2.749800205	0	0	-14.81219196	-12.46777153	1.396427751	1.0
3	2.749800205	0	0	-14.79658699	-12.16404247	1.282230616	1.0
4	2.749800205	0	0	-15.14426136	-11.81825829	1.250061035	1.0
[LeftHand]
1	2.295179844	0	0	-14.61859608	-2.981185198	-5.474588394	1.0
2	2.295179844	0	0	-14.54310322	-2.817918777	-4.739587307	1.0
3	2.295179844	0	0	-14.58315659	-2.798543692	-3.147196531	1.0
4	2.295179844	0	0	-14.98233795	-2.652782917	-1.408708334	1.0
[RightShoulder]
1	-0.3601199985	1.946700096	-0.02662999928	-5.048871994	3.786700487	176.3536987	1.0
2	-0.3601199985	1.946700096	-0.02662999928	-5.112381458	3.867720366	176.3260498	1.0
3	-0.3601199985	1.946700096	-0.02662999928	-5.098653793	3.874523163	176.3827515	1.0
4	-0.3601199985	1.946700096	-0.02662999928	-5.095360756	3.834888458	176.4507141	1.0
[RightArm]
1	-1.140689969	0	0	54.61858368	0.4409373403	-98.43080902	1.0
2	-1.140689969	0	0	54.66590118	0.5682100058	-98.43345642	1.0
3	-1.140689969	0	0	55.00941467	0.6777540445	-98.34770203	1.0
4	-1.140689969	0	0	55.42641068	0.7317972183	-98.2809906	1.0
[RightForeArm]
1	-2.749800205	0	0	0.5940105319	14.35998249	177.7364502	1.0
2	-2.749800205	0	0	0.9351103306	14.16730785	178.0701599	1.0
3	-2.749800205	0	0	0.6960790157	13.83670425	177.9625244	1.0
4	-2.749800205	0	0	0.2432798445	13.58737946	177.6261597	1.0
[RightHand]
1	-2.295179844	0	0	0.7737457156	10.89550018	178.8938446	1.0
2	-2.295179844	0	0	1.043265104	10.62786865	178.5839081	1.0
3	-2.295179844	0	0	0.7631845474	10.48009205	178.0367432	1.0
4	-2.295179844	0	0	0.3189050853	10.51651478	177.7479858	1.0
[LeftUpLeg]
1	0.9094099998	0	0	9.687175751	-4.525896549	89.41188812	1.0
2	0.9094099998	0	0	9.667275429	-4.461440563	89.47587585	1.0
3	0.9094099998	0	0	9.654966354	-4.121153831	89.47938538	1.0
4	0.9094099998	0	0	9.647317886	-4.018838882	89.42430115	1.0
[LeftLeg]
1	0	-4.498080254	0	-1.694870353	-3.443165541	88.72973633	1.0
2	0	-4.498080254	0	-1.638931751	-3.837700129	88.58323669	1.0
3	0	-4.498080254	0	-1.652207136	-3.626421452	88.75059509	1.0
4	0	-4.498080254	0	-1.698442817	-3.377349377	88.89102173	1.0
[LeftFoot]
1	0	-3.729400158	0	-79.10707855	114.7638474	-24.43974304	1.0
2	0	-3.729400158	0	-78.68234253	115.0074692	-23.93274498	1.0
3	0	-3.729400158	0	-79.49316406	114.6605148	-24.87235641	1.0
4	0	-3.729400158	0	-79.35015106	114.0441666	-24.90324974	1.0
[LeftToeBase]
1	0	-0.5911099911	1.364109993	0	0	0	1.0
2	0	-0.5911099911	1.364109993	0	0	0	1.0
3	0	-0.5911099911	1.364109993	0	0	0	1.0
4	0	-0.5911099911	1.364109993	0	0	0	1.0
[RightUpLeg]
1	-0.9094099998	0	0	7.530221939	0.4215693176	91.88137054	1.0
2	-0.9094099998	0	0	7.489109993	0.4193353057	91.86700439	1.0
3	-0.9094099998	0	0	7.403392315	0.3942996562	91.88555908	1.0
4	-0.9094099998	0	0	7.277672768	0.3495409787	91.88578796	1.0
[RightLeg]
1	0	-4.498080254	0	-0.01192861795	-0.9437939525	92.59378815	1.0
2	0	-4.498080254	0	0.1013029143	-0.790915072	92.59334564	1.0
3	0	-4.498080254	0	0.2487024367	-0.6869817972	92.60440826	1.0
4	0	-4.498080254	0	0.4432903826	-0.6354366541	92.5980072	1.0
[RightFoot]
1	0	-3.729400158	0	32.62683487	68.14361572	82.13111115	1.0
2	0	-3.729400158	0	32.21315002	68.07240295	81.71343994	1.0
3	0	-3.729400158	0	31.95659637	68.03813171	81.47645569	1.0
4	0	-3.729400158	0	31.87473679	68.03521729	81.49133301	1.0
[RightToeBase]
1	0	-0.5911099911	1.364109993	0	0	0	1.0
2	0	-0.5911099911	1.364109993	0	0	0	1.0
3	0	-0.5911099911	1.364109993	0	0	0	1.0
4	0	-0.5911099911	1.364109993	0	0	0	1.0
[EndOfFile]
